<svg xmlns="http://www.w3.org/2000/svg" version="1.1" x="0" y="0" viewBox="0 0 363.03 363.02" xml:space="preserve">
    <path d="M181.51 363.02C81.43 363.02 0 281.6 0 181.51 0 81.42 81.43 0 181.51 0c100.08 0 181.51 81.42 181.51 181.51C363.03 281.6 281.6 363.02 181.51 363.02zM181.51 11.71C87.88 11.71 11.71 87.89 11.71 181.51s76.17 169.8 169.8 169.8c93.63 0 169.8-76.17 169.8-169.8S275.15 11.71 181.51 11.71z" fill="#FFFFFF"/>
    <polygon points="147.96 258.94 83.07 194.05 91.35 185.77 147.96 242.38 271.17 119.17 279.45 127.45 " fill="#FFFFFF"/>
</svg>
